# xmcd CD database file
#
# Track frame offsets:
#	150
#	14625
#	28996
#	50669
#	64705
#	78034
#	98185
#	112999
#	125197
#	141694
#	155971
#	174443
#	189902
#	204226
#	217161
#	235515
#	249277
#	262608
#	282757
#
# Disc length: 3921 seconds
#
# Revision: 0
# Processed by: cddbd v1.5.2PL0 Copyright (c) Steve Scherf et al.
# Submitted via: CDex 1.70beta2
#
DISCID=100f4f13
DTITLE=John Denver - I Grandi Successi
DYEAR=1900
DGENRE=Country
TTITLE0=Annie's Song
TTITLE1=Take Me Home, Country Road
TTITLE2=Rock Mountain High
TTITLE3=Starwood In Aspens
TTITLE4=Follow Me
TTITLE5=I'd Rather Be A Cowboy
TTITLE6=Rhymes and Reasons
TTITLE7=Perhaps Love
TTITLE8=Calypso
TTITLE9=Country Love
TTITLE10=Leaving On A Jet Plane
TTITLE11=Thanks God I'm A Country Boy
TTITLE12=Dancing With The Montains
TTITLE13=Baby Look Good To Me Tonight
TTITLE14=Wild Montana Skies
TTITLE15=Come Love Again
TTITLE16=Perhaps Love
TTITLE17=Lady Chains
TTITLE18=Christmas For Cowboys
EXTD=
EXTT0=
EXTT1=
EXTT2=
EXTT3=
EXTT4=
EXTT5=
EXTT6=
EXTT7=
EXTT8=
EXTT9=
EXTT10=
EXTT11=
EXTT12=
EXTT13=
EXTT14=
EXTT15=
EXTT16=
EXTT17=
EXTT18=
PLAYORDER=
